<svg width="200" height="200" viewBox="0 0 200 200" fill="none" xmlns="http://www.w3.org/2000/svg">
<path d="M198.875 36.1235L163.873 1.12155C163.155 0.395365 162.194 0 161.178 0C160.169 0 159.201 0.395365 158.483 1.12155L102.639 56.9569L108.037 62.3468L161.178 9.20638L190.782 38.8185L181.519 48.0813L164.744 31.2985C163.251 29.8138 160.847 29.8138 159.354 31.2985C157.862 32.7992 157.862 35.2037 159.354 36.6883L176.129 53.4712L165.519 64.0815L154.925 53.4954C153.432 51.9946 151.027 51.9946 149.535 53.4954C148.042 54.9801 148.042 57.3845 149.535 58.8853L160.129 69.4795L149.519 80.0898L132.736 63.3069C131.243 61.8142 128.838 61.8142 127.346 63.3069C125.853 64.7997 125.853 67.2041 127.346 68.6968L144.129 85.4797L137.658 91.9508L143.039 97.3407L198.883 41.5053C200.359 40.0207 200.359 37.6162 198.875 36.1235Z" fill="#FDFDFF"/>
<path d="M85.4777 144.124L68.7029 127.35C67.2102 125.857 64.8057 125.857 63.313 127.35C61.8203 128.842 61.8203 131.247 63.313 132.74L80.0878 149.514L69.4775 160.133L58.8914 149.539C57.3986 148.046 54.9861 148.046 53.4934 149.539C52.0007 151.031 52.0007 153.436 53.4934 154.928L64.0876 165.523L53.4773 176.125L36.7025 159.358C35.2097 157.857 32.7972 157.857 31.3045 159.358C29.8118 160.843 29.8118 163.247 31.3045 164.748L48.0793 181.523L38.8165 190.794L9.21243 161.174L62.3447 108.041L56.9549 102.651L1.11953 158.479C-0.373177 159.971 -0.373177 162.376 1.11953 163.869L36.1215 198.879C36.8396 199.589 37.7998 200 38.8165 200C39.825 200 40.7933 199.589 41.5114 198.879L97.3467 143.043L91.9488 137.653L85.4777 144.124Z" fill="#FDFDFF"/>
<path d="M181.809 146.907L55.5583 20.6482L47.1184 12.2003C41.1476 6.21331 30.9326 5.85022 25.4056 11.3934L11.3822 25.4249C5.62922 31.1778 6.00038 40.9168 12.1971 47.1216L146.896 181.828C148.655 183.563 151.576 186.444 183.721 193.73C184.383 193.875 185.053 193.956 185.722 193.956C187.965 193.956 190.047 193.108 191.588 191.551C193.565 189.55 194.364 186.637 193.727 183.749C186.441 151.547 183.536 148.642 181.809 146.907ZM17.5951 41.7317C14.3595 38.5042 13.9884 33.5984 16.764 30.8067L30.7874 16.7833C31.9896 15.573 33.6679 14.9114 35.5076 14.9114C37.7507 14.9114 40.018 15.8877 41.7205 17.5902L47.4734 23.3431L23.3319 47.4766L17.5951 41.7317ZM145.928 160.196C144.596 159.785 143.144 160.14 142.151 161.108C141.159 162.084 140.772 163.52 141.143 164.86L141.312 165.473L28.7218 52.8665L52.8633 28.733L164.728 140.613C163.412 140.275 162.033 140.613 161.073 141.549C160.08 142.526 159.701 143.962 160.072 145.285L162.057 152.442L155.384 150.409C154.053 149.997 152.6 150.36 151.608 151.337C150.607 152.297 150.228 153.749 150.599 155.089L152.584 162.23L145.928 160.196ZM152.278 176.43L150.357 169.516L156.99 171.549C158.345 171.944 159.83 171.565 160.822 170.573C161.791 169.596 162.17 168.176 161.791 166.853L159.814 159.736L166.471 161.762C167.794 162.173 169.246 161.81 170.247 160.834C171.239 159.873 171.626 158.437 171.255 157.098L169.246 149.868L175.919 151.821L176.419 152.313C176.968 152.862 177.928 154.548 179.421 159.075L159.063 179.448C154.529 177.923 152.842 176.979 152.278 176.43ZM186.174 186.202C186.085 186.282 185.924 186.347 185.73 186.347L185.424 186.298C177.799 184.58 171.949 183.119 167.382 181.893L181.882 167.393C183.108 171.952 184.569 177.802 186.295 185.419C186.36 185.742 186.311 186.056 186.174 186.202Z" fill="#F72585"/>
</svg>
