<svg width="200" height="200" viewBox="0 0 200 200" fill="none" xmlns="http://www.w3.org/2000/svg">
<path d="M125 91.6665H58.3334V99.9998H125V91.6665Z" fill="#FDFDFF"/>
<path d="M91.6667 137.5H58.3334V145.833H91.6667V137.5Z" fill="#FDFDFF"/>
<path d="M125 45.8333H58.3334V54.1666H125V45.8333Z" fill="#FDFDFF"/>
<path d="M33.3333 85.4165C31.2731 85.4165 29.2591 86.0274 27.5461 87.172C25.8331 88.3166 24.498 89.9435 23.7096 91.8469C22.9211 93.7503 22.7149 95.8447 23.1168 97.8654C23.5187 99.886 24.5108 101.742 25.9676 103.199C27.4244 104.656 29.2805 105.648 31.3011 106.05C33.3217 106.452 35.4162 106.245 37.3196 105.457C39.223 104.668 40.8498 103.333 41.9944 101.62C43.139 99.9073 43.75 97.8934 43.75 95.8332C43.75 93.0705 42.6525 90.421 40.699 88.4675C38.7455 86.514 36.096 85.4165 33.3333 85.4165V85.4165ZM33.3333 102.083C32.0972 102.083 30.8888 101.717 29.861 101.03C28.8332 100.343 28.0321 99.367 27.559 98.2249C27.086 97.0829 26.9622 95.8262 27.2034 94.6139C27.4445 93.4015 28.0398 92.2878 28.9139 91.4138C29.788 90.5397 30.9016 89.9444 32.114 89.7033C33.3264 89.4621 34.583 89.5859 35.7251 90.0589C36.8671 90.532 37.8432 91.3331 38.53 92.3609C39.2167 93.3887 39.5833 94.597 39.5833 95.8332C39.5833 97.4908 38.9248 99.0805 37.7527 100.253C36.5806 101.425 34.9909 102.083 33.3333 102.083Z" fill="#FDFDFF"/>
<path d="M33.3333 131.25C31.2731 131.25 29.2591 131.861 27.5461 133.006C25.8331 134.15 24.498 135.777 23.7096 137.68C22.9211 139.584 22.7149 141.678 23.1168 143.699C23.5187 145.719 24.5108 147.576 25.9676 149.032C27.4244 150.489 29.2805 151.481 31.3011 151.883C33.3217 152.285 35.4162 152.079 37.3196 151.29C39.223 150.502 40.8498 149.167 41.9944 147.454C43.139 145.741 43.75 143.727 43.75 141.667C43.75 138.904 42.6525 136.254 40.699 134.301C38.7455 132.347 36.096 131.25 33.3333 131.25ZM33.3333 147.917C32.0972 147.917 30.8888 147.55 29.861 146.863C28.8332 146.177 28.0321 145.2 27.559 144.058C27.086 142.916 26.9622 141.66 27.2034 140.447C27.4445 139.235 28.0398 138.121 28.9139 137.247C29.788 136.373 30.9016 135.778 32.114 135.537C33.3264 135.296 34.583 135.419 35.7251 135.892C36.8671 136.365 37.8432 137.167 38.53 138.194C39.2167 139.222 39.5833 140.431 39.5833 141.667C39.5833 143.324 38.9248 144.914 37.7527 146.086C36.5806 147.258 34.9909 147.917 33.3333 147.917Z" fill="#FDFDFF"/>
<path d="M33.3333 39.5833C31.2731 39.5833 29.2591 40.1942 27.5461 41.3388C25.8331 42.4834 24.498 44.1102 23.7096 46.0136C22.9211 47.917 22.7149 50.0115 23.1168 52.0321C23.5187 54.0527 24.5108 55.9088 25.9676 57.3656C27.4244 58.8224 29.2805 59.8145 31.3011 60.2164C33.3217 60.6184 35.4162 60.4121 37.3196 59.6237C39.223 58.8352 40.8498 57.5001 41.9944 55.7871C43.139 54.0741 43.75 52.0601 43.75 49.9999C43.75 47.2372 42.6525 44.5877 40.699 42.6342C38.7455 40.6807 36.096 39.5833 33.3333 39.5833V39.5833ZM33.3333 56.2499C32.0972 56.2499 30.8888 55.8834 29.861 55.1966C28.8332 54.5098 28.0321 53.5337 27.559 52.3917C27.086 51.2497 26.9622 49.993 27.2034 48.7806C27.4445 47.5682 28.0398 46.4546 28.9139 45.5805C29.788 44.7064 30.9016 44.1112 32.114 43.87C33.3264 43.6289 34.583 43.7526 35.7251 44.2257C36.8671 44.6987 37.8432 45.4998 38.53 46.5276C39.2167 47.5554 39.5833 48.7638 39.5833 49.9999C39.5833 51.6575 38.9248 53.2472 37.7527 54.4193C36.5806 55.5914 34.9909 56.2499 33.3333 56.2499Z" fill="#FDFDFF"/>
<path d="M154.167 108.333C145.102 108.333 136.24 111.022 128.703 116.058C121.166 121.094 115.291 128.252 111.822 136.627C108.353 145.002 107.445 154.218 109.214 163.108C110.982 171.999 115.348 180.166 121.758 186.576C128.167 192.986 136.334 197.351 145.225 199.119C154.116 200.888 163.331 199.98 171.706 196.511C180.081 193.042 187.239 187.168 192.276 179.63C197.312 172.093 200 163.232 200 154.167C200 142.011 195.171 130.353 186.576 121.758C177.98 113.162 166.322 108.333 154.167 108.333V108.333ZM154.167 191.667C146.75 191.667 139.5 189.467 133.333 185.347C127.166 181.226 122.359 175.37 119.521 168.517C116.683 161.665 115.94 154.125 117.387 146.851C118.834 139.577 122.406 132.895 127.65 127.65C132.895 122.406 139.576 118.834 146.851 117.387C154.125 115.94 161.665 116.683 168.517 119.521C175.369 122.36 181.226 127.166 185.347 133.333C189.467 139.5 191.667 146.75 191.667 154.167C191.667 164.112 187.716 173.651 180.683 180.683C173.65 187.716 164.112 191.667 154.167 191.667Z" fill="#F72585"/>
<path d="M167.833 138.792L147 160.626L140.458 153.792C140.094 153.35 139.642 152.988 139.13 152.729C138.619 152.469 138.06 152.318 137.488 152.285C136.916 152.251 136.343 152.336 135.805 152.534C135.267 152.732 134.776 153.039 134.362 153.436C133.948 153.832 133.62 154.31 133.4 154.839C133.179 155.368 133.069 155.937 133.079 156.51C133.088 157.083 133.215 157.648 133.452 158.17C133.69 158.692 134.032 159.159 134.458 159.542L143.958 169.542C144.348 169.952 144.816 170.278 145.336 170.501C145.855 170.724 146.414 170.839 146.979 170.839C147.544 170.839 148.104 170.724 148.623 170.501C149.142 170.278 149.611 169.952 150 169.542L173.792 144.542C174.461 143.731 174.799 142.697 174.738 141.647C174.676 140.597 174.22 139.61 173.461 138.882C172.702 138.154 171.695 137.741 170.644 137.724C169.593 137.707 168.574 138.089 167.792 138.792H167.833Z" fill="#F72585"/>
<path d="M107.625 191.667H10.8333C10.1703 191.667 9.53441 191.403 9.06557 190.934C8.59672 190.466 8.33333 189.83 8.33333 189.167V10.8333C8.33333 10.1703 8.59672 9.53441 9.06557 9.06557C9.53441 8.59672 10.1703 8.33333 10.8333 8.33333H147.5C148.163 8.33333 148.799 8.59672 149.268 9.06557C149.737 9.53441 150 10.1703 150 10.8333V91.6667C150 92.7717 150.439 93.8315 151.22 94.6129C152.002 95.3943 153.062 95.8333 154.167 95.8333C155.272 95.8333 156.332 95.3943 157.113 94.6129C157.894 93.8315 158.333 92.7717 158.333 91.6667V10.8333C158.322 7.96353 157.177 5.2144 155.148 3.18513C153.119 1.15586 150.37 0.0109745 147.5 0H10.8333C7.96353 0.0109745 5.2144 1.15586 3.18513 3.18513C1.15586 5.2144 0.0109745 7.96353 0 10.8333L0 189.167C0.0109745 192.036 1.15586 194.786 3.18513 196.815C5.2144 198.844 7.96353 199.989 10.8333 200H107.625C108.73 200 109.79 199.561 110.571 198.78C111.353 197.998 111.792 196.938 111.792 195.833C111.792 194.728 111.353 193.668 110.571 192.887C109.79 192.106 108.73 191.667 107.625 191.667Z" fill="#FDFDFF"/>
</svg>
