<svg width="49" height="147" viewBox="0 0 49 147" fill="none" xmlns="http://www.w3.org/2000/svg">
<path d="M2.29688 132.448C7.65625 129.672 12.2261 126.873 16.0063 124.05C19.8345 121.227 22.2749 119.289 23.3276 118.236L22.3228 77.4663V52.2007L4.80908 50.2627L7.46484 34.1128L16.3652 35.2612C27.8496 36.6968 36.1519 38.228 41.272 39.855L39.5493 120.389C39.5493 122.59 39.1426 124.289 38.3291 125.485C36.5107 128.261 34.1899 130.773 31.3667 133.022C28.5435 135.271 26.127 137.113 24.1172 138.549C19.332 141.994 15.2168 144.578 11.7715 146.301L2.29688 132.448Z" fill="white"/>
<circle cx="24.5" cy="12.25" r="12.25" fill="url(#paint0_radial_104_469)"/>
<defs>
<radialGradient id="paint0_radial_104_469" cx="0" cy="0" r="1" gradientUnits="userSpaceOnUse" gradientTransform="translate(24.5 12.25) rotate(90) scale(12.25)">
<stop stop-color="#ED6A5A"/>
<stop offset="1" stop-color="#F29479"/>
<stop offset="1" stop-color="#F29479"/>
</radialGradient>
</defs>
</svg>
