<svg width="213" height="201" viewBox="0 0 213 201" fill="none" xmlns="http://www.w3.org/2000/svg">
<path d="M202.756 0.800049H11.0425C5.47491 0.800049 0.900024 5.33177 0.900024 10.9425V152.03C0.900024 157.598 5.43175 162.173 11.0425 162.173H82.7731L79.5362 182.501H65.5094C64.0852 182.501 62.9199 183.666 62.9199 185.09V198.21C62.9199 199.635 64.0852 200.8 65.5094 200.8H148.203C149.627 200.8 150.792 199.635 150.792 198.21V185.09C150.792 183.666 149.627 182.501 148.203 182.501H134.176L130.939 162.173H202.713C208.28 162.173 212.812 157.641 212.812 152.03V10.9425C212.855 5.33177 208.323 0.800049 202.756 0.800049ZM11.0425 5.97916H202.713C205.432 5.97916 207.633 8.18028 207.633 10.9425V124.84H6.07914V10.9425C6.07914 8.18028 8.32342 5.97916 11.0425 5.97916ZM145.656 195.578H68.1422V187.636H81.7805H131.975H145.613L145.656 195.578ZM128.954 182.457H84.8016L88.0386 162.129H125.717L128.954 182.457ZM202.756 156.95H127.918H85.7943H11.0425C8.32342 156.95 6.07914 154.749 6.07914 151.987V129.976H207.676V151.987C207.676 154.749 205.475 156.95 202.756 156.95Z" fill="#FDFDFF"/>
<path d="M106.856 133.385C101.288 133.385 96.7999 137.917 96.7999 143.485C96.7999 149.052 101.332 153.541 106.856 153.541C112.424 153.541 116.955 149.009 116.955 143.485C116.955 137.917 112.424 133.385 106.856 133.385ZM106.856 148.405C104.137 148.405 101.979 146.204 101.979 143.528C101.979 140.809 104.18 138.608 106.856 138.608C109.575 138.608 111.776 140.809 111.776 143.528C111.776 146.204 109.575 148.405 106.856 148.405Z" fill="#FDFDFF"/>
<path d="M22.9112 30.9252H64.2578C65.682 30.9252 66.8473 29.7599 66.8473 28.3356C66.8473 26.9114 65.682 25.7461 64.2578 25.7461H22.9112C21.487 25.7461 20.3217 26.9114 20.3217 28.3356C20.3217 29.7599 21.487 30.9252 22.9112 30.9252Z" fill="#FDFDFF"/>
<path d="M22.9112 52.9796H47.2099C48.6341 52.9796 49.7994 51.8143 49.7994 50.3901C49.7994 48.9658 48.6341 47.8005 47.2099 47.8005H22.9112C21.487 47.8005 20.3217 48.9658 20.3217 50.3901C20.3217 51.8143 21.487 52.9796 22.9112 52.9796Z" fill="#FDFDFF"/>
<path d="M22.9112 75.0771H64.2578C65.682 75.0771 66.8473 73.9118 66.8473 72.4875C66.8473 71.0632 65.682 69.8979 64.2578 69.8979H22.9112C21.487 69.8979 20.3217 71.0632 20.3217 72.4875C20.3217 73.9118 21.487 75.0771 22.9112 75.0771Z" fill="#FDFDFF"/>
<path d="M64.2578 91.9526H40.0023C38.578 91.9526 37.4127 93.1179 37.4127 94.5422C37.4127 95.9664 38.578 97.1317 40.0023 97.1317H64.2578C65.682 97.1317 66.8473 95.9664 66.8473 94.5422C66.8473 93.1179 65.682 91.9526 64.2578 91.9526Z" fill="#FDFDFF"/>
<path d="M95.0303 89.1902C99.6484 89.1902 103.446 85.4354 103.446 80.7742C103.446 79.1341 102.972 77.5804 102.152 76.2856L116.567 58.8924C117.516 59.2809 118.552 59.4967 119.674 59.4967C121.228 59.4967 122.652 59.0651 123.904 58.3314L136.593 69.6391C136.118 70.6749 135.859 71.7971 135.859 73.0055C135.859 77.6236 139.614 81.4216 144.275 81.4216C148.893 81.4216 152.691 77.6667 152.691 73.0055C152.691 71.6676 152.346 70.416 151.785 69.2507L169.005 52.4185C170.171 53.0228 171.509 53.4112 172.933 53.4112C177.551 53.4112 181.349 49.6564 181.349 44.9952C181.349 40.334 177.594 36.5791 172.933 36.5791C168.272 36.5791 164.517 40.3771 164.517 44.9952C164.517 46.3331 164.819 47.5847 165.38 48.7069L148.116 65.6253C146.951 65.0211 145.613 64.6758 144.232 64.6758C142.678 64.6758 141.254 65.1074 140.002 65.8411L127.313 54.5334C127.788 53.4975 128.047 52.3322 128.047 51.1238C128.047 46.5057 124.292 42.7077 119.631 42.7077C115.013 42.7077 111.215 46.4626 111.215 51.1238C111.215 52.7638 111.69 54.3176 112.553 55.6123L98.1378 73.0055C97.1883 72.6171 96.1093 72.4013 95.0303 72.4013C92.786 72.4013 90.6712 73.2645 89.0743 74.8614C87.4774 76.4583 86.6143 78.5731 86.6143 80.8173C86.6143 85.4354 90.3691 89.1902 95.0303 89.1902ZM172.846 41.8014C174.616 41.8014 176.083 43.2688 176.083 45.0383C176.083 46.8078 174.659 48.2753 172.846 48.2753C171.983 48.2753 171.163 47.93 170.559 47.3258L170.516 47.2826C170.516 47.2826 170.473 47.2826 170.473 47.2394C169.955 46.6784 169.61 45.9015 169.61 45.0383C169.653 43.2688 171.077 41.8014 172.846 41.8014ZM146.519 70.7612C146.519 70.8044 146.519 70.8044 146.519 70.7612C147.124 71.3655 147.469 72.1423 147.469 73.0487C147.469 74.8182 146.001 76.2856 144.232 76.2856C142.462 76.2856 140.995 74.8182 140.995 73.0487C140.995 71.236 142.419 69.8117 144.232 69.8117C145.095 69.8117 145.915 70.2002 146.519 70.7612ZM119.588 47.8868C121.357 47.8868 122.825 49.3111 122.825 51.1238C122.825 52.8933 121.357 54.3607 119.588 54.3607C117.818 54.3607 116.351 52.8933 116.351 51.1238C116.394 49.3542 117.818 47.8868 119.588 47.8868ZM92.7429 78.4867C93.3471 77.8825 94.1671 77.5372 95.0303 77.5372C95.8072 77.5372 96.4977 77.7962 97.0588 78.2709C97.0588 78.2709 97.0588 78.2709 97.102 78.3141C97.7925 78.9183 98.2673 79.7815 98.2673 80.7742C98.2673 82.5437 96.843 84.0111 95.0303 84.0111C93.2608 84.0111 91.7934 82.5869 91.7934 80.7742C91.7934 79.911 92.1386 79.091 92.7429 78.4867Z" fill="#F72585"/>
</svg>
