<svg width="244" height="200" viewBox="0 0 244 200" fill="none" xmlns="http://www.w3.org/2000/svg">
<path d="M86.4929 136.707C81.8313 136.707 77.2743 135.324 73.3984 132.734C69.5226 130.144 66.5019 126.463 64.7184 122.156C62.9349 117.849 62.4687 113.11 63.3788 108.538C64.289 103.966 66.5345 99.7668 69.8315 96.4712C73.1284 93.1756 77.3286 90.9318 81.9009 90.0235C86.4732 89.1152 91.2122 89.5833 95.5184 91.3685C99.8247 93.1537 103.505 96.1759 106.093 100.053C108.682 103.93 110.062 108.487 110.06 113.149C110.053 119.396 107.567 125.385 103.149 129.802C98.7303 134.219 92.7402 136.702 86.4929 136.707ZM86.4929 94.5374C82.8085 94.5393 79.2074 95.6336 76.1449 97.6819C73.0823 99.7302 70.6959 102.641 69.2872 106.045C67.8786 109.449 67.511 113.195 68.231 116.809C68.9509 120.422 70.7261 123.741 73.332 126.345C75.9379 128.95 79.2576 130.723 82.8713 131.441C86.485 132.159 90.2305 131.79 93.6343 130.38C97.038 128.969 99.9471 126.581 101.994 123.518C104.041 120.454 105.133 116.852 105.133 113.168C105.125 108.228 103.159 103.492 99.6645 99.9992C96.1702 96.5066 91.4334 94.5425 86.4929 94.5374V94.5374Z" fill="#FDFDFF"/>
<path d="M86.4929 149.369C79.3296 149.368 72.3277 147.242 66.3726 143.261C60.4174 139.279 55.7765 133.622 53.0365 127.003C50.2965 120.385 49.5806 113.102 50.9793 106.077C52.3779 99.0516 55.8283 92.5986 60.8942 87.5341C65.9601 82.4695 72.4139 79.0208 79.4397 77.624C86.4655 76.2272 93.7478 76.945 100.366 79.6867C106.983 82.4285 112.64 87.0709 116.619 93.0271C120.599 98.9833 122.723 105.986 122.723 113.149C122.705 122.752 118.882 131.956 112.091 138.745C105.3 145.534 96.0954 149.354 86.4929 149.369V149.369ZM86.4929 81.8561C80.3038 81.8561 74.2536 83.6914 69.1075 87.13C63.9614 90.5685 59.9505 95.4558 57.582 101.174C55.2135 106.892 54.5938 113.184 55.8013 119.254C57.0087 125.324 59.9891 130.9 64.3655 135.277C68.7419 139.653 74.3177 142.633 80.388 143.841C86.4582 145.048 92.7502 144.428 98.4682 142.06C104.186 139.691 109.074 135.681 112.512 130.534C115.951 125.388 117.786 119.338 117.786 113.149C117.778 104.852 114.479 96.8969 108.612 91.03C102.745 85.1631 94.79 81.8637 86.4929 81.8561V81.8561Z" fill="#FDFDFF"/>
<path d="M86.493 166.243C74.2096 166.241 62.3069 161.98 52.813 154.186C43.3191 146.391 36.8213 135.547 34.4269 123.499C32.0325 111.451 33.8895 98.9456 39.6816 88.1135C45.4736 77.2814 54.8424 68.7927 66.1915 64.0937C77.5406 59.3947 90.1679 58.7762 101.922 62.3436C113.676 65.911 123.829 73.4435 130.652 83.6577C137.475 93.872 140.545 106.136 139.34 118.36C138.134 130.584 132.728 142.012 124.041 150.697C119.121 155.642 113.27 159.563 106.824 162.232C100.379 164.9 93.4687 166.264 86.493 166.243V166.243ZM86.493 65.0208C76.967 65.0227 67.6554 67.8492 59.7358 73.143C51.8161 78.4367 45.6439 85.96 41.9998 94.7614C38.3557 103.563 37.4032 113.247 39.2628 122.59C41.1224 131.933 45.7105 140.514 52.4471 147.25C59.1837 153.985 67.7662 158.571 77.1093 160.429C86.4524 162.287 96.1366 161.332 104.937 157.686C113.738 154.041 121.26 147.867 126.552 139.946C131.844 132.025 134.669 122.713 134.669 113.187C134.667 100.408 129.591 88.1531 120.558 79.1144C111.524 70.0756 99.272 64.9927 86.493 64.9826V65.0208Z" fill="#FDFDFF"/>
<path d="M86.4928 183.126C70.3008 183.125 54.6099 177.51 42.0937 167.238C29.5775 156.965 21.0105 142.671 17.8525 126.789C14.6944 110.908 17.1407 94.4236 24.7744 80.144C32.4082 65.8644 44.7572 54.6736 59.7171 48.4783C74.6771 42.283 91.3223 41.4666 106.817 46.1682C122.311 50.8698 135.696 60.7985 144.69 74.2626C153.685 87.7266 157.733 103.893 156.144 120.007C154.555 136.121 147.428 151.185 135.977 162.633C129.494 169.152 121.782 174.32 113.288 177.837C104.794 181.355 95.6864 183.152 86.4928 183.126V183.126ZM86.4928 48.0994C71.4458 48.1011 56.8649 53.32 45.2344 62.8669C33.6039 72.4137 25.6433 85.6979 22.709 100.456C19.7747 115.214 22.0482 130.533 29.1421 143.803C36.2361 157.073 47.7116 167.472 61.6134 173.23C75.5153 178.987 90.9834 179.747 105.382 175.378C119.781 171.01 132.22 161.784 140.58 149.273C148.939 136.762 152.702 121.739 151.227 106.765C149.752 91.7901 143.131 77.7902 132.492 67.1501C126.465 61.0912 119.296 56.2876 111.4 53.0176C103.505 49.7475 95.0388 48.0759 86.4928 48.0994V48.0994Z" fill="#FDFDFF"/>
<path d="M86.4929 200C65.0252 199.972 44.3327 191.973 28.4294 177.552C12.5262 163.132 2.54572 143.319 0.424139 121.956C-1.69744 100.593 4.19106 79.2042 16.9474 61.9375C29.7038 44.6707 48.4186 32.7574 69.4616 28.5084C90.5047 24.2594 112.376 27.9776 130.833 38.9417C149.289 49.9059 163.016 67.3344 169.35 87.8465C175.684 108.359 174.173 130.492 165.111 149.954C156.049 169.415 140.082 184.817 120.307 193.172C109.61 197.702 98.1091 200.025 86.4929 200ZM86.4929 31.2259C67.5423 31.2301 49.1793 37.8048 34.5327 49.8299C19.8861 61.855 9.86198 78.5864 6.16828 97.1736C2.47458 115.761 5.33982 135.054 14.2758 151.765C23.2118 168.477 37.6657 181.573 55.1749 188.822C72.684 196.072 92.1651 197.026 110.299 191.523C128.433 186.02 144.098 174.399 154.624 158.641C165.151 142.883 169.888 123.962 168.029 105.103C166.17 86.244 157.829 68.6128 144.428 55.2137C136.837 47.5831 127.808 41.5339 117.863 37.4164C107.919 33.2989 97.2562 31.1948 86.4929 31.2259V31.2259Z" fill="#FDFDFF"/>
<path d="M86.493 115.613C85.9595 115.616 85.4395 115.446 85.0111 115.128C84.5827 114.81 84.269 114.362 84.1172 113.85C83.9654 113.339 83.9837 112.792 84.1693 112.292C84.3549 111.792 84.6978 111.366 85.1465 111.077L197.36 38.092C197.63 37.8961 197.938 37.7572 198.264 37.6838C198.589 37.6104 198.927 37.604 199.255 37.6649C199.583 37.7259 199.896 37.853 200.174 38.0385C200.451 38.2239 200.688 38.4639 200.871 38.7439C201.053 39.0238 201.176 39.3379 201.233 39.6669C201.29 39.996 201.279 40.3332 201.202 40.6581C201.125 40.9829 200.982 41.2887 200.783 41.5567C200.584 41.8248 200.332 42.0495 200.043 42.2173L87.7917 115.212C87.407 115.469 86.9557 115.608 86.493 115.613V115.613Z" fill="#F72585"/>
<path d="M195.698 39.1997L194.428 15.2884L199.126 12.2326L200.397 36.144L205.104 33.0786L203.834 9.17684L208.542 6.11153L209.803 30.0229L214.51 26.9671L213.24 3.05576L217.948 0L219.209 23.9114L224.021 20.7792L226.686 24.8758L221.873 28.008L243.215 38.856L238.508 41.9213L217.165 31.0638L212.467 34.1195L233.809 44.977L229.102 48.0328L207.769 37.1848L203.061 40.2406L224.403 51.0981L219.696 54.1539L198.363 43.2964L195.698 39.1997Z" fill="#F72585"/>
</svg>
